<svg id="Layer_1" fill="#00282d" data-name="Layer 1" xmlns="http://www.w3.org/2000/svg" viewBox="0 0 1000 383"><title>Artboard 4</title><path d="M812.91,163c-1.18-23.53-2.06-29.37-2.06-40,0-24.32,16-39.55,29.92-42.39,18.06-3.69,32.55,5.88,32.55,27.84,0,15.3-3.14,40.4-3.15,62.76,0,25.49,1.56,47.06,9,47.07,9.41,0,12.55-8.24,19.62-20.4,44.73-77.65,48.26-117.26,66.69-117.26,24.71,0,34.51,19.62,34.51,39.23a58.36,58.36,0,0,1-2,15.3c-7.85,25.09-80.48,129.78-105.59,173.7-28.24,52.94-37.66,74.06-51.78,74.06-16.08,0-42.35-18.38-42.35-34.46,0-9.41,9.41-19.61,19.22-34.91l23.2-34.87C817.21,241.43,814.87,200.24,812.91,163Z"/><path d="M537.28,126.15c0,11.37-2,25.89-6.29,42.75-17.26,68.24-57.69,214-147.5,214-63.93,0-80-43.07-80-86.61,0-23.13,3.93-44.7,8.24-61.56C318,209.65,357.66,80.63,382,80.63c21.23,0,41.57,1.68,41.57,20.12,0,1.17-.39,4.2-.78,6.94-10.6,36.48-27.86,65.89-47.88,146.69-5.1,20-9.81,42.35-9.81,58,0,12.55,2.35,20.79,11.37,20.79,42.75,0,87.88-167.07,98.87-211.78,8.24-32.55,13.73-37.64,23.54-37.64C524.34,83.79,537.28,97.91,537.28,126.15Z"/><path d="M649.64,80.74c-39.88-.11-72.28,19.78-72.28,51.18,0,12.16,3.58,21.62,16,25-22.74,72.1-56.14,145.85-56.14,186.37,0,43,48.48,39.69,58.29,39.69,122,0,180.56-131.06,185.58-181.65C789.23,119,728.09,81,649.64,80.74Zm61,105.33c-2.3,49-58.51,142.54-95.73,140.79-3.53-.16-5.38-2.61-5.16-7.31a43.63,43.63,0,0,1,1.6-8.95l49.18-161c3.62-10.44,6.49-13,12.37-12.77C702.32,138.18,711.9,159.83,710.67,186.07Z"/><path d="M58,382.93c-37.87,0-58-20.17-58-49.52,0-21,8.63-41.27,17-63.23,7.29-19.25,16.33-43.24,26.46-75.42C54,161.26,77.41,71,77.41,71S60.46,60.47,60.46,45.5C60.46,10.09,110.91,0,176,0c76,0,116.28,40.3,116.28,92.05,0,79.27-90.4,99.41-90.4,99.41s68.72,20.17,68.72,65.09c0,76-125.87,126.37-212.51,126.37Zm27.65-80.62c0,10.09,5.1,15.12,15.12,15.12,40.37,0,90.69-45.29,90.69-65.5,0-35.9-55.24-35.9-81.24-35.9C95.69,241.79,85.65,282.11,85.65,302.31ZM195.19,60.47c-38.74,0-48.45,15.12-59.15,60.46l-11.9,50.4c47.18,0,110.3-37.67,107.63-90.7C231,65.47,221.63,60.47,195.19,60.47Z"/></svg>