<svg id="Layer_1" fill="#00282d" data-name="Layer 1" xmlns="http://www.w3.org/2000/svg" viewBox="0 0 290 380"><title>Artboard 5</title><path d="M57.56,380C20,380,0,360,0,330.86c0-20.88,8.57-41,16.83-62.74C24.07,249,33,225.2,43.09,193.27,53.54,160,76.82,70.4,76.82,70.4S60,60,60,45.14C60,10,110.06,0,174.61,0,250,0,290,40,290,91.34,290,170,200.29,190,200.29,190s68.2,20,68.2,64.6C268.49,330,143.58,380,57.6,380ZM85,300c0,10,5,15,15,15,40.06,0,90-44.94,90-65,0-35.63-54.82-35.63-80.62-35.63C95,239.94,85,280,85,300ZM193.71,60c-38.45,0-48.08,15-58.71,60l-11.81,50C170,170,232.66,132.63,230,80,229.24,65,219.94,60,193.71,60Z"/></svg>