<?xml version="1.0" encoding="UTF-8"?>
<svg width="24px" height="24px" viewBox="0 0 24 24" version="1.1" xmlns="http://www.w3.org/2000/svg" xmlns:xlink="http://www.w3.org/1999/xlink">
    <!-- Generator: Sketch 63.1 (92452) - https://sketch.com -->
    <title>Budy Custom Icons / google-g</title>
    <desc>Created with Sketch.</desc>
    <g id="Budy-Custom-Icons-/-google-g" stroke="none" stroke-width="1" fill="none" fill-rule="evenodd">
        <g id="google-g" transform="translate(1.000000, 1.000000)" fill-rule="nonzero">
            <path d="M21.78,11.25 C21.7829159,10.4958736 21.7193364,9.74295846 21.59,9 L11.22,9 L11.22,13.23 L17.16,13.23 C16.9271343,14.5999003 16.1474728,15.8163167 15,16.6 L15,19.34 L18.5,19.34 C20.693681,17.2322313 21.8864427,14.2903281 21.78,11.25 Z" id="Path" fill="#4285F4"></path>
            <path d="M11.22,22 C13.9005168,22.0767681 16.5088259,21.1250395 18.51,19.34 L15,16.6 C13.2717845,17.7082658 11.1290192,17.9575269 9.19255179,17.2755621 C7.25608441,16.5935973 5.74237212,15.0566362 5.09,13.11 L1.39,13.11 L1.39,15.94 C3.2576648,19.6558012 7.06123217,22.000625 11.22,22 Z" id="Path" fill="#34A853"></path>
            <path d="M5,13.11 C4.53968508,11.7444143 4.53968508,10.2655857 5,8.9 L5,6.06 L1.39,6.06 C-0.172204322,9.16807405 -0.172204322,12.831926 1.39,15.94 L5,13.11 Z" id="Path" fill="#FBBC04"></path>
            <path d="M11.22,4.35 C12.788257,4.32729833 14.3030588,4.91957865 15.44,6 L15.44,6 L18.58,2.86 C16.5854323,0.996153573 13.9497321,-0.0280451468 11.22,8.8817842e-16 C7.06123217,-0.000561113458 3.2576648,2.34419881 1.39,6.06 L5,8.9 C5.87801736,6.20274246 8.3835031,4.36995145 11.22,4.35 Z" id="Path" fill="#EA4335"></path>
        </g>
        <rect id="🎨-Icon-Color" x="0" y="0" width="24" height="24"></rect>
    </g>
</svg>